<?xml version="1.0" encoding="UTF-8" standalone="no"?><svg xmlns="http://www.w3.org/2000/svg" height="48" viewBox="0 0 48 48"><path d="M23.87.99h.26q7 0 13.07 4.12 1.24.88 2.62 2.15 1.63 1.6 2.12 2.3 1.28 1.63 1.93 2.77Q47 17.79 47 23.87v.26q0 7-4.12 13.07-.88 1.24-2.16 2.61-1.6 1.64-2.29 2.13-1.63 1.27-2.77 1.93Q30.2 47 24.13 47h-.26q-7 0-13.07-4.11-1.24-.89-2.62-2.16-1.63-1.6-2.12-2.29-1.28-1.63-1.93-2.78Q.99 30.21.99 24.13v-.26q0-7 4.12-13.08Q6 9.55 7.27 8.18q1.6-1.63 2.29-2.12 1.63-1.28 2.77-1.93Q17.8.99 23.87.99z" fill="#ffae00"/><g fill="#000000"><path d="M24 10.34a14 14 0 00-4.43 27.29c.7.13.96-.3.96-.68l-.02-2.6c-3.9.84-4.71-1.65-4.71-1.65-.64-1.62-1.56-2.05-1.56-2.05-1.27-.87.1-.85.1-.85 1.4.1 2.14 1.44 2.14 1.44 1.25 2.14 3.28 1.52 4.08 1.16.12-.9.49-1.52.89-1.87-3.11-.35-6.38-1.55-6.38-6.92 0-1.53.54-2.78 1.44-3.76a5.03 5.03 0 01.14-3.7s1.17-.38 3.85 1.43a13.43 13.43 0 017 0c2.68-1.8 3.85-1.43 3.85-1.43.77 1.93.29 3.35.14 3.7a5.4 5.4 0 011.44 3.76c0 5.38-3.27 6.56-6.4 6.91.51.43.96 1.29.96 2.6l-.02 3.83c0 .38.25.81.96.68A14 14 0 0024 10.34" fill-rule="evenodd"/><path d="M15.3 30.45c-.03.07-.14.09-.24.04-.1-.05-.15-.14-.12-.21.03-.07.14-.1.24-.05.1.05.16.15.12.22M15.87 31.08c-.07.06-.2.03-.29-.07-.09-.1-.1-.23-.04-.29.07-.06.2-.03.29.07.1.1.11.22.04.29M16.42 31.88c-.08.06-.22 0-.3-.12-.1-.12-.1-.27 0-.33.08-.06.22 0 .3.12.1.12.1.27 0 .33M17.18 32.66c-.08.09-.24.06-.36-.05s-.16-.27-.08-.36c.08-.08.24-.06.36.05.12.12.16.28.08.36M18.22 33.11c-.03.11-.19.16-.35.12-.15-.05-.26-.18-.23-.29.04-.11.2-.16.35-.11.16.05.27.17.23.28M19.37 33.2c0 .11-.13.2-.3.21-.17 0-.3-.09-.3-.2 0-.12.13-.21.3-.22.16 0 .3.1.3.2M20.43 33.02c.02.1-.1.22-.26.26-.16.03-.3-.04-.33-.16-.02-.11.1-.23.26-.26.17-.03.31.04.33.16"/></g></svg>