<?xml version="1.0" encoding="UTF-8" standalone="no"?><svg xmlns="http://www.w3.org/2000/svg" height="48" viewBox="0 0 48 48"><path d="M23.87.99h.26q7 0 13.07 4.12 1.24.88 2.62 2.15 1.63 1.6 2.12 2.3 1.28 1.63 1.93 2.77Q47 17.79 47 23.87v.26q0 7-4.12 13.07-.88 1.24-2.16 2.61-1.6 1.64-2.29 2.13-1.63 1.27-2.77 1.93Q30.2 47 24.13 47h-.26q-7 0-13.07-4.11-1.24-.89-2.62-2.16-1.63-1.6-2.12-2.29-1.28-1.63-1.93-2.78Q.99 30.21.99 24.13v-.26q0-7 4.12-13.08Q6 9.55 7.27 8.18q1.6-1.63 2.29-2.12 1.63-1.28 2.77-1.93Q17.8.99 23.87.99z" fill="#ffae00"/><path d="M24 14.2s-8.76 0-10.94.59a3.5 3.5 0 00-2.48 2.47C10 19.44 10 24 10 24s0 4.56.58 6.74a3.5 3.5 0 002.48 2.48c2.18.58 10.94.58 10.94.58s8.75 0 10.94-.58a3.5 3.5 0 002.47-2.48C38 28.56 38 24 38 24s0-4.56-.59-6.74a3.5 3.5 0 00-2.47-2.47C32.75 14.2 24 14.2 24 14.2zm-2.8 5.6l7.27 4.2-7.27 4.2z" fill="#000000"/></svg>